<?xml version="1.0" encoding="UTF-8" standalone="no"?>
<!-- Created with Inkscape (http://www.inkscape.org/) -->

<svg
   width="48"
   height="48"
   viewBox="0 0 12.7 12.7"
   version="1.1"
   id="svg1"
   inkscape:export-filename="bitmap.png"
   inkscape:export-xdpi="96"
   inkscape:export-ydpi="96"
   inkscape:version="1.4.3 (0d15f75, 2025-12-25)"
   sodipodi:docname="drawing.svg"
   xmlns:inkscape="http://www.inkscape.org/namespaces/inkscape"
   xmlns:sodipodi="http://sodipodi.sourceforge.net/DTD/sodipodi-0.dtd"
   xmlns="http://www.w3.org/2000/svg"
   xmlns:svg="http://www.w3.org/2000/svg">
  <sodipodi:namedview
     id="namedview1"
     pagecolor="#505050"
     bordercolor="#ffffff"
     borderopacity="1"
     inkscape:showpageshadow="0"
     inkscape:pageopacity="0"
     inkscape:pagecheckerboard="1"
     inkscape:deskcolor="#505050"
     inkscape:document-units="mm"
     showgrid="true"
     inkscape:zoom="9.2324137"
     inkscape:cx="3.9534624"
     inkscape:cy="23.666617"
     inkscape:window-width="1440"
     inkscape:window-height="900"
     inkscape:window-x="0"
     inkscape:window-y="0"
     inkscape:window-maximized="0"
     inkscape:current-layer="layer1">
    <inkscape:grid
       id="grid3"
       units="px"
       originx="0"
       originy="0"
       spacingx="6.3500001"
       spacingy="6.3500001"
       empcolor="#0099e5"
       empopacity="0.30196078"
       color="#0099e5"
       opacity="0.14901961"
       empspacing="24"
       enabled="true"
       visible="true"
       dotted="false" />
  </sodipodi:namedview>
  <defs
     id="defs1" />
  <g
     inkscape:label="Layer 1"
     inkscape:groupmode="layer"
     id="layer1">
    <rect
       style="fill:#ffffff;stroke-width:0.264583;stroke-miterlimit:2"
       id="rect3"
       width="12.700001"
       height="12.700001"
       x="0"
       y="0" />
    <path
       style="fill:#0000ff;stroke-width:0.132291;stroke-miterlimit:2"
       d="M 6.7558091,6.3499999 A 0.4058092,0.4058092 0 0 1 6.3499999,6.7558091 0.4058092,0.4058092 0 0 1 5.9441907,6.3499999 0.4058092,0.4058092 0 0 1 6.3499999,5.9441907 0.4058092,0.4058092 0 0 1 6.7558091,6.3499999 Z"
       id="path4" />
    <path
       style="fill:#0000ff;stroke-width:0.132291;stroke-miterlimit:2"
       d="M 12.7,12.294081 A 0.4058092,0.4058092 0 0 0 12.294081,12.7 H 12.7 Z"
       id="path3" />
    <path
       style="fill:#0000ff;stroke-width:0.132291;stroke-miterlimit:2"
       d="M 0,12.294081 V 12.7 H 0.40591838 A 0.4058092,0.40580919 0 0 0 0,12.294081 Z"
       id="path2" />
    <path
       style="fill:#0000ff;stroke-width:0.132291;stroke-miterlimit:2"
       d="M 12.294081,0 A 0.40580919,0.4058092 0 0 0 12.7,0.40591838 V 0 Z"
       id="path1" />
    <path
       style="fill:#0000ff;stroke-width:0.132291;stroke-miterlimit:2"
       d="M 0,0 V 0.40591838 A 0.4058092,0.4058092 0 0 0 0.40591838,0 Z"
       id="rect9" />
  </g>
</svg>
