<?xml version="1.0" encoding="UTF-8" standalone="no"?>
<!-- Uploaded to: SVG Repo, www.svgrepo.com, Generator: SVG Repo Mixer Tools -->

<svg
   fill="#000000"
   width="700.00067"
   height="700.01575"
   viewBox="0 0 448.00043 448.01008"
   version="1.1"
   id="svg1"
   sodipodi:docname="solve.svg"
   inkscape:version="1.4.3 (0d15f75, 2025-12-25)"
   xmlns:inkscape="http://www.inkscape.org/namespaces/inkscape"
   xmlns:sodipodi="http://sodipodi.sourceforge.net/DTD/sodipodi-0.dtd"
   xmlns="http://www.w3.org/2000/svg"
   xmlns:svg="http://www.w3.org/2000/svg">
  <defs
     id="defs1" />
  <sodipodi:namedview
     id="namedview1"
     pagecolor="#505050"
     bordercolor="#ffffff"
     borderopacity="1"
     inkscape:showpageshadow="0"
     inkscape:pageopacity="0"
     inkscape:pagecheckerboard="1"
     inkscape:deskcolor="#505050"
     inkscape:zoom="0.48710015"
     inkscape:cx="21.556142"
     inkscape:cy="136.52223"
     inkscape:window-width="1440"
     inkscape:window-height="900"
     inkscape:window-x="0"
     inkscape:window-y="0"
     inkscape:window-maximized="0"
     inkscape:current-layer="svg1" />
  <path
     d="m 313.14042,448.01009 h -89.14 v -45.71 a 31.3,31.3 0 0 0 -9.59,-22.65 c -7.67,-7.56 -18.83,-11.81 -30.57,-11.64 a 44.38,44.38 0 0 0 -28.45,10.67 c -5.2,4.6 -11.39,12.56 -11.39,24.42 v 44.91 H 55.620422 a 55.68,55.68 0 0 1 -55.61999988166,-55.62 v -88.38 H 45.710422 c 9.16,0 18.07,-3.92 25.09,-11 a 42.06,42.06 0 0 0 12.2,-29.92 c -0.3,-21.19 -17.74,-39.08 -38.09,-39.08 H 4.2211834e-4 v -89.34 A 53.77,53.77 0 0 1 16.530422,95.670092 a 55.88,55.88 0 0 1 39.09,-15.66 h 63.239998 v -14.48 a 65.53,65.53 0 0 1 66.68,-65.52000042 c 35.49,0.62 64.36,30.38000042 64.36,66.33000042 v 13.67 h 63.24 a 54.28,54.28 0 0 1 54.86,54.859998 v 63.24 h 13.66 c 36.58,0 66.34,29 66.34,64.64 0,36.61 -29.39,66.4 -65.52,66.4 h -14.48 v 63.24 c 0,30.67 -24.61,55.62 -54.86,55.62 z"
     id="path1" />
</svg>
